<svg width="50" height="50" viewBox="0 0 50 50" fill="none" xmlns="http://www.w3.org/2000/svg">
<path fill-rule="evenodd" clip-rule="evenodd" d="M1.298 14.5569C1.19209e-07 16.9282 0 19.7887 0 25.5098V29.3125C0 39.0645 2.38419e-07 43.9408 2.92893 46.9702C5.85787 50 10.5719 50 20 50H30C39.428 50 44.1423 50 47.071 46.9702C50 43.9408 50 39.0645 50 29.3125V25.5098C50 19.7887 50 16.9282 48.702 14.5569C47.404 12.1855 45.0327 10.7138 40.29 7.7703L35.29 4.66717C30.2765 1.55572 27.7698 0 25 0C22.2302 0 19.7235 1.55572 14.7101 4.66717L9.71007 7.77032C4.96737 10.7138 2.596 12.1855 1.298 14.5569ZM18.6165 33.4938C17.7846 32.877 16.6103 33.0515 15.9937 33.8835C15.3771 34.7155 15.5515 35.8898 16.3835 36.5063C18.8145 38.3083 21.7875 39.375 25 39.375C28.2125 39.375 31.1855 38.3083 33.6165 36.5063C34.4485 35.8898 34.623 34.7155 34.0062 33.8835C33.3897 33.0515 32.2155 32.877 31.3835 33.4938C29.5625 34.8433 27.3647 35.625 25 35.625C22.6353 35.625 20.4375 34.8433 18.6165 33.4938Z" fill="#FF7F11"/>
</svg>
