<svg width="926" height="926" viewBox="0 0 926 926" fill="none" xmlns="http://www.w3.org/2000/svg">
<rect width="926" height="926" fill="#3C00B4"/>
<path d="M482.471 552.494L461.889 555.004C461.889 552.996 461.638 548.562 461.136 541.701C460.801 534.84 460.216 526.39 459.379 516.35C458.542 506.31 457.455 495.433 456.116 483.72C454.945 472.007 453.522 460.21 451.849 448.329C450.343 436.448 448.586 425.321 446.578 414.946C444.57 404.571 442.311 395.786 439.801 388.591L459.63 383.069C462.809 392.774 465.654 404.069 468.164 416.954C470.674 429.671 472.766 442.891 474.439 456.612C476.28 470.333 477.702 483.636 478.706 496.521C479.877 509.238 480.714 520.533 481.216 530.406C481.885 540.279 482.304 547.641 482.471 552.494Z" fill="white"/>
</svg>
